<svg width="251" height="498" viewBox="0 0 251 498" fill="#fff" xmlns="http://www.w3.org/2000/svg">
<path d="M4.05864 1.50804C4.19598 0.764037 5.24798 0.790667 5.36665 1.53733C6.93865 11.4147 11.7307 21.2894 16.956 29.2387C35.5533 57.5307 68.7213 72.036 100.54 79.6654C130.107 86.756 160.091 90.6427 188.377 102.468C207.149 110.317 224.927 121.665 236.035 139.137C247.828 157.687 250.753 180.257 250.667 201.823C250.633 209.759 250.184 217.689 249.477 225.591C249.625 223.923 247.855 221.08 247.211 219.643C244.821 214.32 241.763 209.295 238.328 204.585C225.737 187.325 207.884 174.464 188.66 165.497C170.517 157.035 150.905 152.532 131.273 149.116C112.112 145.781 91.3293 144.685 72.8787 138.472C49.9613 130.755 28.508 117.984 15.3306 97.112C3.83198 78.9 -0.198677 57.1534 0.00665659 35.868C0.0733233 28.872 0.58398 21.884 1.42931 14.94C1.95465 10.612 3.22798 6.0147 4.05864 1.50804" fill="#fff"/>
<path d="M4.05864 92.4653C4.19598 91.7213 5.24798 91.748 5.36665 92.4947C6.93865 102.372 11.7307 112.247 16.956 120.195C35.5533 148.488 68.7213 162.993 100.54 170.624C130.107 177.713 160.091 181.601 188.377 193.427C207.149 201.275 224.927 212.624 236.035 230.095C247.828 248.644 250.753 271.215 250.667 292.78C250.633 300.716 250.184 308.647 249.477 316.548C249.625 314.88 247.855 312.037 247.211 310.601C244.821 305.277 241.763 300.252 238.328 295.544C225.737 278.283 207.884 265.421 188.66 256.455C170.517 247.992 150.905 243.491 131.273 240.073C112.112 236.74 91.3293 235.643 72.8787 229.429C49.9613 221.713 28.508 208.941 15.3306 188.071C3.83198 169.857 -0.198677 148.111 0.00665659 126.825C0.0733233 119.829 0.58398 112.841 1.42931 105.899C1.95465 101.571 3.22798 96.972 4.05864 92.4653" fill="#fff"/>
<path d="M4.05864 182.207C4.19598 181.463 5.24798 181.491 5.36665 182.237C6.93865 192.113 11.7307 201.988 16.956 209.937C35.5533 238.231 68.7213 252.736 100.54 260.365C130.107 267.455 160.091 271.343 188.377 283.168C207.149 291.017 224.927 302.365 236.035 319.836C247.828 338.385 250.753 360.956 250.667 382.523C250.633 390.457 250.184 398.388 249.477 406.291C249.625 404.623 247.855 401.78 247.211 400.343C244.821 395.02 241.763 389.995 238.328 385.285C225.737 368.025 207.884 355.163 188.66 346.196C170.517 337.735 150.905 333.232 131.273 329.816C112.112 326.481 91.3293 325.384 72.8787 319.172C49.9613 311.455 28.508 298.684 15.3306 277.812C3.83198 259.6 -0.198677 237.853 0.00665659 216.568C0.0733233 209.572 0.58398 202.583 1.42931 195.64C1.95465 191.312 3.22798 186.715 4.05864 182.207" fill="#fff"/>
<path d="M25.2267 368.115C25.2267 373.799 20.6173 378.408 14.9333 378.408C9.24801 378.408 4.64001 373.799 4.64001 368.115C4.64001 362.429 9.24801 357.821 14.9333 357.821C20.6173 357.821 25.2267 362.429 25.2267 368.115Z" fill="#5A4396"/>
<path d="M15.536 377.579C16.4467 377.969 16.488 378.427 16.516 378.884L16.66 380.255L16.9613 382.991L17.628 388.452C18.1067 392.085 18.5773 395.712 19.192 399.313C20.352 406.521 21.8973 413.657 24.1213 420.571C28.5373 434.364 36.348 446.959 46.3787 457.398C66.528 478.212 94.5147 491.549 123.453 493.104C152.336 494.892 181.883 486.302 205.051 468.945C216.664 460.321 226.52 449.434 234.053 437.132C237.819 430.981 241.061 424.477 243.5 417.648L249.88 396.655C250.149 404.096 249.133 411.643 246.641 418.703C244.369 425.833 241.328 432.722 237.648 439.268C233.992 445.836 229.387 451.843 224.324 457.375C219.244 462.893 213.707 468.015 207.643 472.427C183.567 490.355 153.064 499.135 123.187 497.22C115.72 496.698 108.292 495.536 101.036 493.672C93.796 491.74 86.744 489.143 79.9693 485.955C66.5107 479.485 54.084 470.741 43.7947 459.855C33.5013 449.004 25.4813 435.881 21.0013 421.561C18.7627 414.436 17.2013 407.132 16.1 399.795C15.5827 396.119 15.1307 392.439 14.8267 388.751L14.4187 383.219L14.2467 380.455L14.1693 379.072C14.1253 378.613 14.0933 378.152 14.932 377.625L15.536 377.579" fill="#fff"/>
<path d="M246.917 399.701C246.917 399.701 248.345 402.508 247.044 405.989C246.436 407.615 249.073 403.649 249.073 403.649L248.744 400.391L246.917 399.701Z" fill="#5A4396"/>
</svg>
