<svg width="587" height="196" viewBox="0 0 587 196" fill="none" xmlns="http://www.w3.org/2000/svg">
<path d="M2.40881 1.12669C2.46254 0.834686 2.87507 0.846697 2.92027 1.1387C3.53641 5.0107 5.41507 8.88135 7.46361 11.996C14.7527 23.0854 27.7527 28.7707 40.2251 31.7627C51.814 34.5414 63.5661 36.064 74.6536 40.7C82.012 43.776 88.9787 48.224 93.3333 55.072C97.956 62.3427 99.1027 71.1894 99.0693 79.6427C99.056 82.7534 98.88 85.8613 98.6027 88.9587C98.6613 88.3053 97.968 87.1907 97.7133 86.628C96.7773 84.5413 95.58 82.572 94.2333 80.7253C89.2987 73.96 82.2995 68.9187 74.764 65.404C67.6536 62.088 59.9661 60.3227 52.2708 58.984C44.762 57.6773 36.6145 57.2467 29.3828 54.812C20.4011 51.7867 11.9921 46.7814 6.82654 38.6C2.31934 31.4627 0.739607 22.9374 0.820274 14.5947C0.846407 11.8534 1.04694 9.11335 1.37761 6.39202C1.58494 4.69602 2.08334 2.89335 2.40881 1.12669" fill="#fff"/>
<path d="M2.40881 36.7787C2.46254 36.4867 2.87507 36.4973 2.92027 36.7907C3.53641 40.6613 5.41507 44.532 7.46361 47.648C14.7527 58.7374 27.7527 64.4227 40.2251 67.4134C51.814 70.192 63.5661 71.716 74.6536 76.352C82.012 79.428 88.9787 83.876 93.3333 90.724C97.956 97.9947 99.1027 106.841 99.0693 115.295C99.056 118.405 98.88 121.513 98.6027 124.611C98.6613 123.957 97.968 122.843 97.7133 122.279C96.7773 120.193 95.58 118.223 94.2333 116.377C89.2987 109.612 82.2995 104.571 74.764 101.056C67.6536 97.74 59.9661 95.9747 52.2708 94.6347C44.762 93.328 36.6145 92.8987 29.3828 90.464C20.4011 87.4387 11.9921 82.4333 6.82654 74.252C2.31934 67.1133 0.739607 58.5894 0.820274 50.2467C0.846407 47.504 1.04694 44.7653 1.37761 42.044C1.58494 40.348 2.08334 38.5454 2.40881 36.7787" fill="#fff"/>
<path d="M2.40881 71.9546C2.46254 71.6626 2.87507 71.6733 2.92027 71.9653C3.53641 75.8373 5.41507 79.708 7.46361 82.824C14.7527 93.912 27.7527 99.5987 40.2251 102.589C51.814 105.368 63.5661 106.892 74.6536 111.527C82.012 114.604 88.9787 119.051 93.3333 125.9C97.956 133.171 99.1027 142.017 99.0693 150.469C99.056 153.58 98.88 156.688 98.6027 159.787C98.6613 159.132 97.968 158.017 97.7133 157.455C96.7773 155.368 95.58 153.399 94.2333 151.552C89.2987 144.788 82.2995 139.745 74.764 136.232C67.6536 132.915 59.9661 131.149 52.2708 129.811C44.762 128.504 36.6145 128.075 29.3828 125.639C20.4011 122.613 11.9921 117.608 6.82654 109.428C2.31934 102.289 0.739607 93.7653 0.820274 85.4213C0.846407 82.68 1.04694 79.94 1.37761 77.2186C1.58494 75.5226 2.08334 73.72 2.40881 71.9546" fill="#fff"/>
<path d="M10.7057 144.823C10.7057 147.051 8.89947 148.857 6.67027 148.857C4.44267 148.857 2.63547 147.051 2.63547 144.823C2.63547 142.595 4.44267 140.788 6.67027 140.788C8.89947 140.788 10.7057 142.595 10.7057 144.823" fill="#fff"/>
<path d="M6.90628 148.532C7.26401 148.685 7.28028 148.864 7.29175 149.044L7.34735 149.581L7.46615 150.653L7.72815 152.795C7.91401 154.217 8.09895 155.64 8.34015 157.051C8.79428 159.876 9.40108 162.673 10.2724 165.383C12.0027 170.789 15.0651 175.725 18.9964 179.819C26.8948 187.976 37.8636 193.204 49.2073 193.813C60.5271 194.515 72.1084 191.147 81.1891 184.344C85.7413 180.964 89.604 176.697 92.5573 171.875C94.032 169.464 95.304 166.915 96.26 164.237L98.76 156.009C98.8653 158.925 98.468 161.884 97.4907 164.651C96.6 167.445 95.408 170.147 93.9667 172.712C92.532 175.287 90.728 177.64 88.744 179.809C86.752 181.972 84.5827 183.98 82.2041 185.709C72.7683 192.736 60.8125 196.177 49.1016 195.427C46.1745 195.223 43.264 194.767 40.4193 194.036C37.5817 193.279 34.8177 192.261 32.1631 191.011C26.888 188.475 22.0156 185.048 17.9828 180.781C13.9489 176.528 10.8047 171.384 9.04948 165.772C8.17188 162.979 7.55988 160.116 7.12761 157.24C6.92548 155.799 6.74841 154.356 6.62921 152.911L6.46881 150.743L6.40268 149.659L6.37241 149.117C6.35415 148.937 6.34121 148.756 6.67028 148.549L6.90628 148.532" fill="#fff"/>
<path d="M97.5987 157.203C97.5987 157.203 98.1587 158.303 97.648 159.668C97.4107 160.304 98.444 158.751 98.444 158.751L98.3147 157.473L97.5987 157.203Z" fill="#fff"/>
<path d="M401.793 79.136L398.969 76.3094L396.141 79.136C395.853 79.4667 395.708 79.8334 395.708 80.2427C395.708 80.652 395.853 81.0227 396.141 81.3494L398.969 84.176L401.793 81.3494C401.959 81.184 402.061 81.04 402.103 80.92C402.185 81.04 402.305 81.184 402.471 81.3494L405.297 84.176L408.125 81.3494C408.411 81.0227 408.555 80.652 408.555 80.2427C408.555 79.8334 408.411 79.4667 408.125 79.136L405.297 76.3094L402.471 79.136C402.305 79.3014 402.185 79.4427 402.103 79.5667C402.061 79.4427 401.959 79.3014 401.793 79.136ZM402.164 110.727C399.461 110.727 397.021 110.143 394.851 108.975C392.679 107.805 390.855 106.26 389.38 104.336C387.904 102.409 386.765 100.259 385.969 97.8814C385.168 95.5067 384.769 93.108 384.769 90.6893C384.769 89.2987 385.405 88.2134 386.677 87.4334C388.519 86.2854 389.584 84.8534 389.872 83.132C389.955 82.64 389.996 82.1493 389.996 81.6547C389.996 80.4693 389.707 79.3427 389.133 78.2734C388.969 78.0307 388.765 77.9067 388.519 77.9067C388.275 77.948 388.109 78.112 388.028 78.3974C387.743 79.3814 387.147 80.0574 386.244 80.428C385.835 80.6307 385.425 80.7347 385.017 80.7347C384.527 80.7347 384.011 80.5894 383.477 80.304C382.413 79.648 381.88 78.748 381.88 77.6014C381.88 77.1094 382.025 76.5974 382.309 76.0614C383.008 75.0374 383.912 74.5254 385.017 74.5254C385.547 74.5254 386.061 74.6707 386.553 74.956C387.944 75.736 389.195 76.9654 390.301 78.6454C391.408 80.3254 391.961 82.232 391.961 84.3614V98.9254C391.961 101.715 392.943 104.089 394.912 106.057C396.876 108.023 399.296 109.005 402.164 109.005C403.556 109.005 404.868 108.751 406.097 108.239C407.328 107.727 408.404 107.009 409.324 106.085C410.245 105.164 410.963 104.089 411.473 102.859C411.987 101.629 412.244 100.32 412.244 98.9254V92.8414C412.244 91.4494 412.876 90.3427 414.147 89.5213L419.496 86.4507V90.628C419.456 93.0467 419.032 95.456 418.236 97.8507C417.435 100.248 416.288 102.409 414.793 104.336C413.299 106.26 411.473 107.805 409.324 108.975C407.173 110.143 404.785 110.727 402.164 110.727" fill="#fff"/>
<path d="M433.631 113.801C433.136 113.801 432.624 113.657 432.091 113.368C430.493 112.385 429.192 111.036 428.189 109.315C427.185 107.593 426.684 105.809 426.684 103.965V74.1587C426.684 72.7667 427.319 71.66 428.589 70.84L433.936 67.7653C433.936 77.684 433.916 87.5773 433.873 97.452C433.873 98.9666 433.239 100.113 431.972 100.893C429.757 102.244 428.652 104.131 428.652 106.548C428.652 107.696 428.959 108.864 429.573 110.049C429.696 110.256 429.837 110.359 430.003 110.359H430.311C430.432 110.359 430.535 110.215 430.617 109.929C430.944 108.943 431.559 108.249 432.463 107.837C432.829 107.676 433.217 107.593 433.631 107.593C434.159 107.593 434.695 107.737 435.228 108.023C436.251 108.637 436.763 109.517 436.763 110.664C436.763 111.197 436.62 111.709 436.335 112.2C435.719 113.265 434.815 113.801 433.631 113.801" fill="#fff"/>
<path d="M467.525 104.827C462.465 100.853 459.689 96.1213 459.197 90.628H466.388C466.388 93.744 467.024 96.5507 468.295 99.048C469.563 101.549 471.263 103.639 473.397 105.319C476.633 107.775 480.237 109.005 484.212 109.005V110.788C478.148 110.788 472.585 108.803 467.525 104.827V104.827ZM457.816 107.593C458.737 106.652 459.197 105.563 459.197 104.336V80.9814C459.197 79.6694 458.737 78.5627 457.816 77.6627C456.892 76.7587 455.776 76.3093 454.468 76.3093C453.195 76.3093 452.1 76.7693 451.179 77.6933C450.255 78.6147 449.795 79.7107 449.795 80.9814V104.336C449.795 105.604 450.255 106.7 451.179 107.624C452.1 108.545 453.195 109.005 454.468 109.005C455.776 109.005 456.892 108.535 457.816 107.593ZM446.291 121.205C444.775 120.201 443.648 119.064 442.911 117.793C442.665 117.343 442.541 116.893 442.541 116.443C442.541 115.337 443.013 114.516 443.957 113.983C444.449 113.74 444.94 113.616 445.431 113.616C446.415 113.616 447.195 114.087 447.767 115.028C448.012 115.519 448.136 115.989 448.136 116.443C448.136 116.811 448.073 117.157 447.949 117.488C447.583 118.305 446.947 118.857 446.047 119.147C445.8 119.229 445.676 119.332 445.676 119.452V119.7C445.676 119.824 445.757 119.947 445.923 120.068C447.152 120.724 448.187 121.071 449.025 121.112C449.867 121.153 450.327 121.173 450.409 121.173C451.801 121.173 453.113 120.931 454.344 120.439C457.332 118.92 458.929 116.464 459.136 113.063C459.095 112.448 458.851 111.915 458.401 111.465C457.947 111.012 457.395 110.788 456.741 110.788H454.468C452.865 110.788 451.351 110.463 449.917 109.805C446.925 108.452 444.796 106.323 443.525 103.412C442.911 101.98 442.604 100.464 442.604 98.8627V86.4507C442.604 83.2973 443.772 80.5307 446.108 78.1547C448.441 75.776 451.227 74.588 454.468 74.588C456.101 74.588 457.641 74.8973 459.075 75.508C460.511 76.124 461.777 76.976 462.884 78.0613C463.989 79.1467 464.853 80.408 465.468 81.84C466.083 83.276 466.388 84.812 466.388 86.4507V104.58C466.388 106.751 466.031 108.923 465.312 111.093C464.595 113.265 463.561 115.213 462.211 116.935C460.857 118.656 459.219 120.047 457.295 121.112C455.531 122.099 453.564 122.631 451.392 122.713C449.507 122.713 447.805 122.208 446.291 121.205" fill="#fff"/>
<path d="M530.553 110.788C524.487 110.788 518.924 108.803 513.867 104.827C508.807 100.853 506.031 96.1213 505.539 90.628H512.731C512.731 93.744 513.361 96.5507 514.635 99.048C515.905 101.549 517.605 103.639 519.736 105.319C522.972 107.775 526.58 109.005 530.553 109.005V110.788ZM500.867 109.067C502.139 109.067 503.235 108.607 504.155 107.687C505.076 106.761 505.539 105.665 505.539 104.395V80.9814C505.539 79.7107 505.076 78.6253 504.155 77.7213C503.235 76.8213 502.139 76.3707 500.867 76.3707C499.555 76.3707 498.439 76.8213 497.519 77.7213C496.596 78.6253 496.137 79.7107 496.137 80.9814V104.395C496.137 105.665 496.596 106.761 497.519 107.687C498.439 108.607 499.555 109.067 500.867 109.067ZM500.805 110.788C499.208 110.788 497.693 110.472 496.256 109.836C494.824 109.201 493.575 108.369 492.509 107.345C490.213 109.64 487.448 110.788 484.212 110.788V109.005C485.483 109.005 486.58 108.545 487.5 107.624C488.42 106.7 488.884 105.604 488.884 104.336V86.5134C488.884 84.9147 489.211 83.376 489.867 81.9027C491.217 78.9133 493.347 76.78 496.256 75.508C497.693 74.8973 499.311 74.588 501.115 74.588C502.631 74.588 504.084 74.8973 505.477 75.508C506.869 76.124 508.109 76.9867 509.195 78.092C510.281 79.1987 511.139 80.46 511.775 81.8707C512.411 83.2827 512.731 84.812 512.731 86.4507V98.8627C512.731 100.505 512.411 102.041 511.775 103.473C511.139 104.909 510.281 106.177 509.195 107.284C508.109 108.389 506.849 109.252 505.416 109.868C503.98 110.483 502.444 110.788 500.805 110.788" fill="#fff"/>
<path d="M560.299 110.851C553.047 110.565 546.817 107.981 541.613 103.105L541.489 103.473C540.833 104.909 539.973 106.157 538.909 107.221C537.844 108.291 536.584 109.149 535.131 109.805C533.673 110.463 532.148 110.788 530.551 110.788V109.005C531.821 109.005 532.917 108.555 533.839 107.655C534.759 106.751 535.223 105.665 535.223 104.395V89.7693C535.223 88.3747 535.856 87.2693 537.127 86.4506L542.475 83.4373V90.628C542.475 93.744 543.107 96.5613 544.379 99.08C545.649 101.601 547.351 103.68 549.48 105.319C552.716 107.775 556.324 109.005 560.299 109.005C561.567 109.005 562.663 108.555 563.585 107.655C564.508 106.751 564.968 105.665 564.968 104.395V92.8413C564.968 91.4493 565.603 90.364 566.873 89.584L572.22 86.5133V107.408C572.22 108.472 572.856 109.005 574.127 109.005C575.395 109.005 576.491 108.555 577.415 107.655C578.336 106.751 578.796 105.665 578.796 104.395V89.7693C578.796 88.3747 579.431 87.2693 580.701 86.4506L586.048 83.4373V98.9866C586.007 100.547 585.671 102.041 585.035 103.473C584.399 104.909 583.551 106.167 582.485 107.253C581.417 108.339 580.16 109.201 578.703 109.836C577.251 110.472 575.724 110.788 574.127 110.788C573.021 110.788 571.92 110.596 570.839 110.204C569.751 109.816 568.756 109.273 567.857 108.576L567.489 108.271C565.356 109.988 562.961 110.851 560.299 110.851" fill="#fff"/>
<path d="M153.659 93.9853C155.325 94.8027 156.624 95.7813 157.555 96.9253C158.484 98.0693 159.089 99.2693 159.367 100.525C159.644 101.784 159.603 103.031 159.244 104.275C158.885 105.515 158.224 106.632 157.26 107.628C156.296 108.624 155.056 109.441 153.537 110.076C152.02 110.716 150.231 111.032 148.175 111.032C146.215 111.067 144.54 110.836 143.153 110.348C141.764 109.857 140.631 109.335 139.749 108.779C138.671 108.125 137.805 107.377 137.151 106.528L136.467 99.276C136.859 100.877 137.421 102.323 138.156 103.611C138.892 104.903 139.764 106.005 140.776 106.92C141.789 107.833 142.923 108.535 144.181 109.025C145.439 109.513 146.769 109.761 148.175 109.761C149.48 109.761 150.589 109.537 151.505 109.099C152.419 108.659 153.129 108.088 153.636 107.383C154.141 106.683 154.469 105.9 154.616 105.033C154.761 104.168 154.745 103.32 154.567 102.484C154.385 101.653 154.044 100.869 153.537 100.135C153.031 99.4 152.403 98.8053 151.651 98.3453L143.128 93.6933C141.561 92.844 140.328 91.8373 139.429 90.68C138.531 89.5213 137.952 88.3267 137.692 87.1027C137.429 85.8813 137.455 84.664 137.764 83.4547C138.075 82.2453 138.652 81.1773 139.504 80.2453C140.352 79.3147 141.447 78.556 142.787 77.968C144.124 77.3813 145.693 77.0853 147.487 77.0853C148.86 77.0853 150.1 77.1854 151.212 77.3814C152.321 77.576 153.268 77.8027 154.053 78.064C154.967 78.36 155.799 78.6693 156.551 78.996L157.972 85.4133C156.827 83.2587 155.383 81.528 153.636 80.2213C151.888 78.916 149.839 78.26 147.487 78.26C146.377 78.26 145.431 78.4733 144.645 78.9C143.863 79.3227 143.235 79.8614 142.76 80.5147C142.288 81.1707 141.976 81.9027 141.831 82.72C141.684 83.5373 141.684 84.3453 141.831 85.1453C141.976 85.9453 142.261 86.688 142.688 87.372C143.112 88.0587 143.667 88.5987 144.353 88.9893L153.659 93.9853" fill="#fff"/>
<path d="M194.121 110.788H186.773L175.36 82.964L169.875 96.9733H178.592L179.28 98.788H169.191L164.487 110.788H162.185L161.057 109.661C161.449 109.661 161.784 109.548 162.063 109.317C162.34 109.091 162.577 108.829 162.772 108.535C163.001 108.177 163.196 107.785 163.36 107.359L175.264 77.3814H177.321L190.596 108.633C190.757 108.992 191.06 109.252 191.5 109.417C191.944 109.579 192.408 109.661 192.899 109.661L194.121 110.788" fill="#fff"/>
<path d="M235.073 110.788H228.264V82.132L214.497 111.228H212.344L212.883 110.053L199.608 84.0907L199.56 110.788H196.128L194.953 109.613H196.128C196.389 109.613 196.595 109.565 196.743 109.465C196.887 109.369 197.004 109.252 197.085 109.121C197.165 108.992 197.213 108.86 197.231 108.731C197.248 108.6 197.255 108.517 197.255 108.487V80.8093C197.224 80.4173 197.124 80.044 196.963 79.6827C196.799 79.3867 196.561 79.12 196.251 78.876C195.943 78.628 195.509 78.508 194.953 78.508L196.08 77.3814C196.832 77.2507 197.568 77.216 198.285 77.2814C198.904 77.3467 199.532 77.5187 200.172 77.7973C200.807 78.0747 201.323 78.556 201.713 79.2427L215.185 105.401L228.264 77.4293V77.3814H235.073L233.899 78.508C233.603 78.508 233.383 78.628 233.236 78.876C233.087 79.12 232.984 79.3867 232.919 79.6827C232.819 80.044 232.771 80.4173 232.771 80.8093V108.487C232.771 108.713 232.819 108.909 232.919 109.075C232.984 109.239 233.087 109.369 233.236 109.465C233.383 109.565 233.603 109.613 233.899 109.613L235.073 110.788Z" fill="#fff"/>
<path d="M271.321 110.788H263.972L252.56 82.964L247.073 96.9733H255.793L256.48 98.788H246.389L241.687 110.788H239.384L238.257 109.661C238.649 109.661 238.983 109.548 239.261 109.317C239.539 109.091 239.776 108.829 239.972 108.535C240.199 108.177 240.395 107.785 240.56 107.359L252.464 77.3814H254.523L267.797 108.633C267.959 108.992 268.26 109.252 268.7 109.417C269.143 109.579 269.607 109.661 270.099 109.661L271.321 110.788" fill="#fff"/>
<path d="M317.513 77.3813L316.289 78.456C315.437 78.4253 314.867 78.556 314.576 78.848C314.28 79.1427 314.019 79.4867 313.792 79.8787L299.781 111.327H297.476L297.919 110.396C295.6 105.075 293.46 100.241 291.501 95.8947C290.653 94.036 289.819 92.2053 289.004 90.4093C288.187 88.6147 287.42 86.98 286.703 85.5133C285.98 84.0427 285.361 82.8013 284.84 81.7893C284.317 80.7747 283.94 80.14 283.713 79.8787C283.417 79.552 283.009 79.2733 282.487 79.048C281.965 78.8173 281.264 78.704 280.381 78.704L281.556 77.4293C282.047 77.3987 282.539 77.3987 283.027 77.4293C283.452 77.464 283.909 77.5013 284.397 77.552C284.888 77.6013 285.361 77.6733 285.819 77.772C286.437 77.9347 287.035 78.2227 287.605 78.628C288.18 79.0373 288.756 79.652 289.348 80.4653C289.935 81.284 290.553 82.3347 291.207 83.6267C291.86 84.9147 292.612 86.5093 293.46 88.4027L298.459 77.3813H303.063L301.788 78.456C300.971 78.3907 300.393 78.5253 300.049 78.848C299.705 79.1773 299.452 79.5187 299.291 79.8787C298.833 80.892 298.343 81.9667 297.82 83.1107C297.363 84.0907 296.859 85.2347 296.301 86.54C295.749 87.8453 295.143 89.22 294.491 90.656L300.712 104.323L312.909 77.3813H317.513ZM286.311 104.323L289.492 97.3653L290.524 99.7187C289.805 101.285 289.136 102.78 288.513 104.199C287.891 105.621 287.356 106.855 286.899 107.899C286.341 109.139 285.837 110.283 285.38 111.327H283.075L283.519 110.396C281.199 105.007 279.059 100.141 277.1 95.7987C276.251 93.9373 275.411 92.1093 274.579 90.312C273.744 88.516 272.977 86.884 272.273 85.4133C271.573 83.9427 270.961 82.7133 270.439 81.716C269.917 80.72 269.539 80.108 269.311 79.8787C268.951 79.5187 268.519 79.2333 268.013 79.02C267.508 78.8107 266.828 78.704 265.983 78.704L267.157 77.4293C267.645 77.3987 268.133 77.3987 268.625 77.4293C269.047 77.464 269.508 77.5013 269.995 77.552C270.487 77.6013 270.961 77.6733 271.417 77.772C272.693 78.0987 273.76 78.8 274.627 79.8787C275.492 80.9573 276.283 82.28 277 83.8467L286.311 104.323" fill="#fff"/>
<path d="M344.797 110.788H337.452L326.036 82.964L320.553 96.9733H329.272L329.956 98.788H319.865L315.163 110.788H312.861L311.735 109.661C312.125 109.661 312.459 109.548 312.737 109.317C313.016 109.091 313.252 108.829 313.448 108.535C313.675 108.177 313.871 107.785 314.035 107.359L325.94 77.3814H327.997L341.272 108.633C341.433 108.992 341.737 109.252 342.18 109.417C342.62 109.579 343.084 109.661 343.575 109.661L344.797 110.788" fill="#fff"/>
<path d="M358.025 108.583C358.025 108.813 358.076 108.992 358.172 109.121C358.237 109.287 358.344 109.417 358.492 109.513C358.639 109.613 358.86 109.661 359.151 109.661L360.325 110.788H358.025H353.42H352.247L351.119 109.661H352.247C352.537 109.661 352.768 109.613 352.929 109.513C353.093 109.417 353.208 109.287 353.273 109.121C353.372 108.992 353.42 108.813 353.42 108.583V81.7893C353.387 81.428 353.273 81.088 353.077 80.7613C352.916 80.5 352.661 80.2533 352.317 80.0267C351.973 79.796 351.476 79.6827 350.823 79.6827H346.564C345.911 79.7134 345.32 79.848 344.801 80.0747C344.341 80.2693 343.941 80.5893 343.599 81.0293C343.255 81.4693 343.084 82.084 343.084 82.868L341.96 81.7413C341.96 80.336 342.251 79.2573 342.84 78.508C343.427 77.756 344.636 77.3814 346.464 77.3814H349.944H369.389L366.647 79.6827H358.025V108.583" fill="#fff"/>
<path d="M181.729 137.757C182.067 137.045 182.544 136.492 183.159 136.101C183.771 135.707 184.484 135.511 185.303 135.511C185.887 135.511 186.457 135.64 187.007 135.908C187.556 136.173 188.033 136.551 188.443 137.043C188.848 137.531 189.14 138.087 189.315 138.712H192.188C191.957 137.531 191.521 136.489 190.875 135.592C190.229 134.692 189.425 133.999 188.464 133.511C187.501 133.019 186.447 132.775 185.303 132.775C183.917 132.775 182.701 133.084 181.653 133.703C180.603 134.321 179.792 135.193 179.215 136.321C178.639 137.448 178.349 138.753 178.349 140.237V145.72C178.349 147.205 178.639 148.511 179.215 149.637C179.792 150.764 180.603 151.633 181.653 152.248C182.701 152.86 183.917 153.169 185.303 153.169C186.436 153.169 187.487 152.921 188.449 152.433C189.412 151.943 190.215 151.248 190.868 150.352C191.517 149.452 191.957 148.413 192.188 147.232H189.315C189.14 147.899 188.848 148.476 188.443 148.964C188.033 149.448 187.556 149.816 187.013 150.063C186.468 150.311 185.897 150.435 185.303 150.435C184.484 150.435 183.771 150.239 183.159 149.851C182.544 149.459 182.067 148.908 181.729 148.195C181.389 147.48 181.221 146.655 181.221 145.72V140.237C181.221 139.293 181.389 138.464 181.729 137.757" fill="#fff"/>
<path d="M206.583 135.633H211.817C212.359 135.633 212.832 135.761 213.241 136.019C213.645 136.272 213.963 136.637 214.189 137.111C214.412 137.581 214.525 138.125 214.525 138.74C214.525 139.351 214.412 139.893 214.189 140.368C213.963 140.839 213.645 141.203 213.233 141.461C212.821 141.715 212.348 141.845 211.817 141.845H206.583V135.633ZM214.739 143.796C215.611 143.32 216.292 142.643 216.779 141.769C217.263 140.893 217.508 139.884 217.508 138.74C217.508 137.592 217.267 136.581 216.787 135.709C216.305 134.833 215.625 134.156 214.752 133.683C213.876 133.205 212.861 132.968 211.708 132.968H206.583H205.001H203.779V152.963H206.583V144.512H210.755L215.02 152.963H218.345L213.732 144.207C214.084 144.097 214.421 143.968 214.739 143.796" fill="#fff"/>
<path d="M231.363 132.981H230.003V152.963H242.837V150.296H232.805V144.375H241.325V141.708H232.805V135.648H242.837V132.981H232.805H231.363" fill="#fff"/>
<path d="M258.225 145.913L261.341 136.843L264.457 145.913H258.225ZM260.145 132.981L252.78 152.963H255.804L257.309 148.579H265.373L266.879 152.963H269.903L262.536 132.981H260.145Z" fill="#fff"/>
<path d="M277.509 135.648H283.157V152.963H285.961V135.648H291.608V132.981H277.509V135.648" fill="#fff"/>
<path d="M302.235 152.963H305.037V132.981H302.235V152.963" fill="#fff"/>
<path d="M324.201 148.648L319.405 132.981H316.355L322.868 152.963H325.533L332.048 132.981H328.997L324.201 148.648" fill="#fff"/>
<path d="M344.312 132.981H342.953V152.963H355.788V150.296H345.756V144.375H354.276V141.708H345.756V135.648H355.788V132.981H345.756H344.312" fill="#fff"/>
<path d="M393.583 142.615C392.771 142.275 391.761 141.983 390.552 141.736L390.401 141.708L390.251 141.68L390.147 141.66L390.044 141.639C389.009 141.436 388.199 141.24 387.619 141.055C387.037 140.867 386.549 140.573 386.161 140.183C385.773 139.788 385.577 139.248 385.577 138.561V138.547C385.577 137.547 385.956 136.775 386.711 136.232C387.468 135.685 388.528 135.413 389.892 135.413C390.652 135.413 391.412 135.551 392.167 135.833C392.923 136.111 393.683 136.531 394.441 137.091L396.035 134.864C395.385 134.397 394.723 134.009 394.049 133.703C393.376 133.393 392.693 133.164 392.001 133.009C391.311 132.851 390.607 132.775 389.892 132.775C388.399 132.775 387.12 133.003 386.059 133.463C384.997 133.92 384.187 134.585 383.633 135.461C383.08 136.335 382.803 137.393 382.803 138.629V138.644C382.803 140.052 383.1 141.141 383.695 141.907C384.289 142.669 385.007 143.199 385.845 143.488C386.684 143.776 387.772 144.033 389.109 144.264L389.315 144.305L389.405 144.319L389.493 144.332C390.401 144.497 391.139 144.676 391.713 144.876C392.287 145.072 392.753 145.373 393.115 145.783C393.475 146.188 393.657 146.74 393.657 147.439V147.452C393.657 148.432 393.259 149.191 392.463 149.727C391.665 150.263 390.541 150.531 389.095 150.531C388.024 150.531 387.031 150.365 386.113 150.036C385.196 149.705 384.359 149.211 383.599 148.551L381.853 150.695C382.503 151.245 383.203 151.701 383.949 152.069C384.695 152.433 385.499 152.709 386.361 152.893C387.223 153.076 388.135 153.169 389.095 153.169C390.644 153.169 391.964 152.941 393.06 152.489C394.156 152.035 394.991 151.376 395.568 150.509C396.144 149.644 396.433 148.6 396.433 147.383V147.356C396.433 146.044 396.163 145.013 395.616 144.257C395.071 143.501 394.393 142.952 393.583 142.615" fill="#fff"/>
<path d="M409.385 132.981H408.025V152.963H420.861V150.296H410.828V144.375H419.349V141.708H410.828V135.648H420.861V132.981H410.828H409.385Z" fill="#fff"/>
<path d="M435.529 135.633H440.765C441.305 135.633 441.78 135.761 442.189 136.019C442.597 136.272 442.913 136.637 443.137 137.111C443.36 137.581 443.472 138.125 443.472 138.74C443.472 139.351 443.36 139.893 443.137 140.368C442.913 140.839 442.593 141.203 442.181 141.461C441.769 141.715 441.299 141.845 440.765 141.845H435.529V135.633ZM443.687 143.796C444.563 143.32 445.243 142.643 445.727 141.769C446.211 140.893 446.456 139.884 446.456 138.74C446.456 137.592 446.215 136.581 445.733 135.709C445.252 134.833 444.576 134.156 443.7 133.683C442.824 133.205 441.809 132.968 440.656 132.968H435.529H433.951H432.727V152.963H435.529V144.512H439.703L443.968 152.963H447.293L442.68 144.207C443.031 144.097 443.369 143.968 443.687 143.796" fill="#fff"/>
<path d="M464.601 148.648L459.805 132.981H456.755L463.268 152.963H465.935L472.448 132.981H469.397L464.601 148.648" fill="#fff"/>
<path d="M483.349 152.963H486.152V132.981H483.349V152.963" fill="#fff"/>
<path d="M501.949 137.757C502.289 137.045 502.764 136.492 503.379 136.101C503.993 135.707 504.708 135.511 505.523 135.511C506.109 135.511 506.677 135.64 507.227 135.908C507.776 136.173 508.253 136.551 508.663 137.043C509.072 137.531 509.36 138.087 509.535 138.712H512.408C512.177 137.531 511.741 136.489 511.095 135.592C510.449 134.692 509.644 133.999 508.684 133.511C507.721 133.019 506.667 132.775 505.523 132.775C504.139 132.775 502.921 133.084 501.873 133.703C500.825 134.321 500.012 135.193 499.435 136.321C498.859 137.448 498.569 138.753 498.569 140.237V145.72C498.569 147.205 498.859 148.511 499.435 149.637C500.012 150.764 500.825 151.633 501.873 152.248C502.921 152.86 504.139 153.169 505.523 153.169C506.66 153.169 507.707 152.921 508.669 152.433C509.632 151.943 510.439 151.248 511.088 150.352C511.737 149.452 512.177 148.413 512.408 147.232H509.535C509.36 147.899 509.072 148.476 508.663 148.964C508.253 149.448 507.78 149.816 507.233 150.063C506.688 150.311 506.117 150.435 505.523 150.435C504.708 150.435 503.993 150.239 503.379 149.851C502.764 149.459 502.289 148.908 501.949 148.195C501.609 147.48 501.441 146.655 501.441 145.72V140.237C501.441 139.293 501.609 138.464 501.949 137.757Z" fill="#fff"/>
<path d="M536.833 135.648V132.981H523.999V152.963H525.36H526.803H536.833V150.296H526.803V144.375H535.323V141.708H526.803V135.648H536.833" fill="#fff"/>
</svg>
